<svg width="494" height="88" viewBox="0 0 494 88" fill="none" xmlns="http://www.w3.org/2000/svg">
<path d="M94 46.3C94 40.8 95.2 35.9 97.7 31.5C100.2 27.1 103.5 23.6 107.8 21.2C112.1 18.7 116.9 17.5 122.1 17.5C128.2 17.5 133.6 19 138.2 21.9C142.8 24.9 146.1 29.1 148.2 34.5H139.4C137.8 31.1 135.6 28.5 132.6 26.7C129.7 24.9 126.2 24 122.1 24C118.2 24 114.6 24.9 111.5 26.7C108.4 28.5 105.9 31.1 104.1 34.5C102.3 37.8 101.4 41.8 101.4 46.3C101.4 50.8 102.3 54.7 104.1 58.1C105.9 61.4 108.3 64 111.5 65.9C114.6 67.7 118.2 68.6 122.1 68.6C126.2 68.6 129.7 67.7 132.6 65.9C135.6 64.1 137.8 61.5 139.4 58.1H148.2C146.1 63.5 142.8 67.7 138.2 70.6C133.6 73.5 128.3 75 122.1 75C116.9 75 112.1 73.8 107.8 71.4C103.5 68.9 100.2 65.5 97.7 61.1C95.2 56.7 94 51.8 94 46.3Z" fill="#F9F9FB"/>
<path d="M189.1 30.2V38.3C187.7 35.8 185.6 33.7 182.7 32C179.9 30.3 176.5 29.5 172.6 29.5C168.7 29.5 165.1 30.5 161.8 32.3C158.6 34.2 156.1 36.8 154.3 40.3C152.5 43.7 151.5 47.7 151.5 52.2C151.5 56.7 152.4 60.7 154.3 64.2C156.2 67.7 158.6 70.4 161.8 72.4C165 74.4 168.5 75.3 172.5 75.3C176.3 75.3 179.7 74.5 182.5 72.8C185.4 71.1 187.6 68.9 189 66.3V74.5H196.4V30.2H189.1ZM187 61.1C185.7 63.6 183.8 65.5 181.5 66.8C179.2 68.1 176.7 68.7 174 68.7C171.2 68.7 168.7 68 166.5 66.8C164.2 65.4 162.4 63.5 161.1 61.1C159.8 58.6 159.1 55.6 159.1 52.2C159.1 48.9 159.8 46 161.1 43.5C162.4 41 164.3 39.1 166.5 37.8C168.8 36.5 171.3 35.9 174 35.9C176.7 35.9 179.2 36.6 181.5 37.9C183.8 39.2 185.7 41.1 187 43.5C188.4 46 189 48.9 189 52.2C189.1 55.6 188.4 58.5 187 61.1Z" fill="#F9F9FB"/>
<path d="M211.4 37.4C212.7 34.9 214.5 32.9 216.9 31.5C219.3 30.1 222.3 29.4 225.7 29.4V37H223.8C215.6 37 211.4 41.5 211.4 50.4V74.5H204V30.2H211.4V37.4Z" fill="#F9F9FB"/>
<path d="M269.8 50.7C269.8 46.7 268.9 43.1 267.1 39.9C265.4 36.7 262.9 34.1 259.7 32.3C256.5 30.5 252.8 29.5 248.6 29.5C244.3 29.5 240.5 30.5 237.1 32.3C233.8 34.1 231.3 36.8 229.4 40.2C227.6 43.7 226.6 47.7 226.6 52.2C226.6 56.8 227.6 60.8 229.4 64.3C231.3 67.8 233.9 70.4 237.2 72.3C240.5 74.2 244.3 75.1 248.5 75.1C253.8 75.1 258.2 73.8 261.7 71.1C265.3 68.4 267.6 64.9 268.8 60.7H261C260.1 63.2 258.6 65.2 256.5 66.7C254.4 68.2 251.8 68.9 248.6 68.9C244.7 68.9 241.4 67.7 238.7 65.3C236 62.8 234.5 59.4 234.3 55H269.7C269.7 53.5 269.8 52.1 269.8 50.7ZM234.2 49.1C234.6 44.9 236.1 41.6 238.6 39.2C241.2 36.8 244.4 35.7 248.1 35.7C250.7 35.7 253 36.2 255.1 37.3C257.3 38.3 259 39.9 260.2 41.9C261.4 43.9 262.1 46.3 262.1 49.1H234.2Z" fill="#F9F9FB"/>
<path d="M311.4 18.2V24.2H286.9V43.2H306.8V49.2H286.9V74.6H279.5V18.2H311.4Z" fill="#F9F9FB"/>
<path d="M322.6 14.5C321.7 13.5 320.6 13 319.2 13C317.8 13 316.6 13.5 315.6 14.5C314.6 15.5 314.1 16.7 314.1 18.1C314.1 19.5 314.6 20.7 315.6 21.7C316.6 22.7 317.8 23.2 319.2 23.2C320.6 23.2 321.7 22.7 322.6 21.7C323.6 20.7 324.1 19.5 324.1 18.1C324.1 16.6 323.6 15.4 322.6 14.5ZM315.4 30.2V74.5H322.8V30.2H315.4Z" fill="#F9F9FB"/>
<path d="M352.1 29.4C357.5 29.4 361.9 31 365.2 34.3C368.5 37.5 370.2 42.2 370.2 48.4V74.5H362.9V49.5C362.9 45.1 361.8 41.7 359.6 39.4C357.4 37 354.4 35.8 350.5 35.8C346.6 35.8 343.5 37 341.2 39.4C338.9 41.8 337.8 45.4 337.8 50V74.5H330.4V30.2H337.8V36.5C339.3 34.2 341.2 32.5 343.7 31.2C346.3 30 349 29.4 352.1 29.4Z" fill="#F9F9FB"/>
<path d="M412.1 14.7V38.1C410.5 35.5 408.3 33.4 405.3 31.9C402.3 30.3 399.1 29.5 395.7 29.5C391.7 29.5 388.1 30.5 384.9 32.3C381.7 34.2 379.2 36.8 377.4 40.3C375.6 43.7 374.6 47.7 374.6 52.2C374.6 56.7 375.5 60.7 377.4 64.2C379.3 67.7 381.7 70.4 384.9 72.4C388.1 74.3 391.7 75.3 395.7 75.3C399.5 75.3 402.9 74.5 405.7 72.8C408.6 71.1 410.7 68.9 412.2 66.3V74.6H419.6V14.7H412.1ZM410 61.1C408.7 63.6 406.8 65.5 404.5 66.8C402.2 68.1 399.7 68.7 397 68.7C394.2 68.7 391.7 68 389.5 66.8C387.2 65.4 385.4 63.5 384.1 61.1C382.8 58.6 382.1 55.6 382.1 52.2C382.1 48.9 382.8 46 384.1 43.5C385.4 41 387.3 39.1 389.5 37.8C391.8 36.5 394.3 35.9 397 35.9C399.7 35.9 402.2 36.6 404.5 37.9C406.8 39.2 408.7 41.1 410 43.5C411.3 46 412 48.9 412 52.2C412.1 55.6 411.4 58.5 410 61.1Z" fill="#F9F9FB"/>
<path d="M467.5 50.7C467.5 52.1 467.4 53.6 467.3 55.1H431.9C432.2 59.5 433.7 62.9 436.3 65.4C439 67.8 442.4 69 446.2 69C449.4 69 452 68.3 454.1 66.8C456.3 65.3 457.8 63.3 458.6 60.8H466.5C465.3 65.1 462.9 68.5 459.4 71.2C455.8 73.8 451.4 75.2 446.1 75.2C441.9 75.2 438.1 74.3 434.8 72.4C431.5 70.5 428.9 67.8 427 64.4C425.1 60.9 424.2 56.9 424.2 52.3C424.2 47.7 425.1 43.7 426.9 40.3C428.7 36.9 431.3 34.2 434.6 32.4C437.9 30.5 441.8 29.6 446.1 29.6C450.3 29.6 454 30.5 457.3 32.3C460.5 34.1 463 36.7 464.7 39.9C466.6 43 467.5 46.6 467.5 50.7ZM459.9 49.1C459.9 46.3 459.3 43.9 458 41.9C456.8 39.9 455.1 38.3 452.9 37.3C450.8 36.2 448.5 35.7 445.9 35.7C442.2 35.7 439 36.9 436.4 39.3C433.8 41.7 432.3 45 432 49.2H459.9V49.1Z" fill="#F9F9FB"/>
<path d="M479.7 37.4C481 34.9 482.8 32.9 485.2 31.5C487.6 30.1 490.6 29.4 494 29.4V37H492.1C483.9 37 479.7 41.5 479.7 50.4V74.5H472.3V30.2H479.7V37.4Z" fill="#F9F9FB"/>
<path d="M66 29.3V34.1C61.1 30.1 55 27.9 48.7 27.9C41.5 27.9 34.5 30.8 29.4 35.9C24.3 41 21.4 48 21.4 55.2C21.4 61.3 23.8 67.4 27.7 73.4C28 73.8 28.2 74.2 28.5 74.6H0V29.3L2.4 27.2L33 0L45 10.7L58.1 22.3L63.6 27.2L66 29.3Z" fill="#A1D11E"/>
<path d="M58.1 6.29999H45V22.5H58.1V6.29999Z" fill="#A1D11E"/>
<path d="M66 42.9C65.3 41.9 64.5 41 63.7 40.2C59.7 36.2 54.3 34 48.7 34C43.1 34 37.7 36.2 33.7 40.2C29.7 44.2 27.5 49.6 27.5 55.2C27.5 60.9 30.3 67.4 36 74.7C39.3 78.9 43.5 83.3 48.7 88C53.9 83.3 58.1 78.8 61.4 74.7C63.2 72.4 64.8 70.1 66 67.9C68.6 63.3 69.9 59.1 69.9 55.2C70 50.8 68.6 46.5 66 42.9ZM41.6 49.7C43.8 47.7 47.1 48.1 48.7 50.2C49.1 49.6 49.7 49.1 50.3 48.8C52.9 47.7 55.7 48.8 56.8 51.3C57.6 53.7 56.9 56.2 55.6 58.1C54.7 59.4 53.6 60.5 52.5 61.4C51.5 62.4 49.3 64.3 48.7 64.3C48.2 64.2 47.6 63.6 47.2 63.3C44.9 61.5 42.3 59.2 41 56.8C39.9 54.4 39.9 51.5 41.6 49.7Z" fill="#F9F9FB"/>
</svg>
